<?xml version="1.0" standalone="no"?>
<!DOCTYPE svg PUBLIC "-//W3C//DTD SVG 20010904//EN"
 "http://www.w3.org/TR/2001/REC-SVG-20010904/DTD/svg10.dtd">
<svg version="1.0" xmlns="http://www.w3.org/2000/svg"
 width="599.000000pt" height="1064.000000pt" viewBox="0 0 599.000000 1064.000000"
 preserveAspectRatio="xMidYMid meet">

<g transform="translate(0.000000,1064.000000) scale(0.100000,-0.100000)"
fill="#000000" stroke="none">
<path d="M3023 9398 c-39 -19 -50 -63 -56 -218 -3 -80 -10 -158 -15 -175 -8
-27 -13 -30 -42 -27 -18 2 -53 -2 -76 -8 -37 -11 -47 -10 -67 3 -23 15 -24 23
-30 151 -7 148 -13 167 -65 192 -60 28 -119 -16 -141 -105 -18 -76 -61 -280
-77 -369 -9 -51 -19 -90 -22 -88 -2 3 -21 54 -42 113 -54 152 -66 178 -96 202
-34 27 -74 27 -109 -1 -46 -36 -56 -78 -68 -273 -10 -173 -12 -181 -38 -215
-15 -19 -30 -44 -33 -56 -7 -24 -55 -49 -67 -37 -5 5 -35 47 -66 93 -67 98
-100 118 -150 93 -63 -30 -66 -91 -11 -211 17 -39 32 -88 33 -117 3 -41 9 -55
33 -76 28 -25 109 -176 99 -185 -2 -2 -56 55 -120 127 -95 108 -114 135 -107
150 35 64 -10 123 -130 173 -65 28 -99 50 -145 94 -253 245 -458 407 -545 432
-23 7 -42 5 -65 -5 -39 -16 -55 -41 -55 -87 0 -29 13 -46 110 -139 117 -113
323 -279 432 -348 36 -23 91 -71 123 -106 l56 -64 -78 -131 c-43 -71 -83 -130
-89 -130 -17 0 -74 -68 -74 -87 0 -21 -51 -13 -187 33 -92 31 -109 34 -135 23
-58 -24 -75 -84 -38 -132 11 -14 31 -29 43 -32 40 -13 227 -132 227 -145 0 -6
-14 -41 -31 -79 -29 -66 -34 -71 -112 -119 -45 -27 -108 -71 -139 -97 l-57
-46 -72 55 c-40 30 -85 58 -100 61 -40 9 -85 -18 -99 -59 -15 -48 -5 -65 93
-158 75 -70 81 -79 70 -97 -22 -35 -16 -89 12 -115 24 -22 42 -31 155 -76 122
-48 190 -83 195 -101 4 -11 17 -32 30 -47 l24 -29 -62 9 c-81 11 -123 -3 -144
-48 -15 -31 -15 -37 0 -69 10 -21 26 -37 42 -41 14 -3 25 -8 25 -10 0 -1 -11
-24 -25 -50 -14 -26 -25 -54 -25 -62 0 -8 -21 -62 -47 -121 -46 -102 -48 -110
-47 -196 0 -57 8 -119 21 -170 12 -44 24 -105 28 -135 9 -76 52 -322 69 -397
8 -35 17 -120 21 -190 3 -71 12 -162 20 -203 8 -41 19 -109 26 -150 14 -84 27
-116 59 -145 28 -25 91 -26 118 -2 18 16 20 16 26 2 3 -9 6 -34 6 -54 0 -21 9
-96 20 -167 10 -71 22 -165 25 -209 12 -159 45 -355 79 -470 8 -27 29 -115 46
-194 31 -140 48 -191 142 -411 25 -58 57 -134 71 -170 31 -78 71 -165 166
-364 76 -157 133 -246 266 -410 44 -55 98 -125 120 -156 119 -169 224 -301
251 -316 19 -11 43 -15 65 -12 19 3 43 0 54 -7 12 -8 79 -15 173 -20 l152 -6
30 29 c34 34 36 50 15 92 -14 27 -14 31 4 52 142 167 180 220 271 373 68 115
154 235 253 355 129 156 331 429 388 525 140 234 457 1049 578 1485 18 63 40
140 51 170 66 200 153 594 170 770 20 212 56 457 59 402 3 -61 60 -110 112
-97 21 5 34 -3 80 -52 101 -106 229 -287 274 -386 32 -70 30 -85 -37 -227 -95
-200 -190 -339 -297 -436 -86 -78 -233 -176 -245 -164 -5 5 -27 10 -48 10 -29
0 -45 -7 -63 -26 -44 -48 -25 -113 43 -152 74 -41 114 -29 279 85 205 142 329
292 468 565 129 253 124 342 -34 577 -142 210 -299 379 -379 406 -31 11 -43
11 -72 -1 -34 -14 -69 -49 -70 -68 0 -5 -2 -7 -5 -5 -8 8 53 170 71 190 9 10
30 21 48 24 31 6 128 40 217 75 34 13 51 15 64 7 10 -5 31 -10 45 -9 38 1 157
38 253 79 167 71 204 85 287 104 46 12 96 27 111 34 55 29 77 105 43 153 -31
45 -59 50 -321 63 l-251 13 38 46 c54 64 100 152 102 191 1 45 -27 97 -59 110
-51 19 -83 1 -192 -107 -57 -57 -108 -104 -112 -104 -13 0 -21 39 -14 69 6 28
-9 75 -37 112 -9 14 -2 38 42 135 52 114 54 122 55 206 0 76 -3 90 -21 108
l-21 22 27 67 c16 38 35 82 44 99 22 43 20 76 -8 109 -32 37 -93 39 -131 3
l-26 -24 -43 47 c-37 41 -48 47 -83 47 -26 0 -53 -9 -77 -25 -59 -40 -105 -56
-126 -45 -10 6 -35 10 -55 10 -32 0 -35 2 -30 23 3 12 6 33 7 47 0 14 9 63 18
110 76 360 141 879 119 937 -14 38 -50 62 -90 63 -89 0 -182 -175 -383 -722
-18 -48 -18 -48 -41 -30 -16 12 -26 31 -30 64 -4 27 -10 50 -15 53 -4 3 -4 22
0 42 4 21 16 92 26 159 l18 121 41 -5 c37 -4 44 -1 68 28 35 41 37 97 5 127
-35 32 -60 35 -103 13 -34 -18 -41 -18 -55 -5 -9 8 -35 15 -57 15 -72 0 -93
-43 -116 -240 l-12 -105 -18 165 c-21 194 -29 223 -63 239 -63 28 -119 -3
-129 -72 -6 -41 -8 -43 -38 -39 -38 4 -79 -24 -104 -71 -9 -18 -33 -77 -52
-132 -33 -93 -38 -100 -65 -103 -15 -2 -27 0 -25 5 3 4 20 40 40 78 62 119 99
222 99 275 0 42 -4 52 -31 74 -55 47 -100 33 -154 -47 -19 -29 -62 -83 -95
-122 -34 -38 -73 -90 -88 -115 l-27 -45 -5 308 -5 309 -33 29 c-34 30 -62 35
-99 17z m-196 -650 c-3 -7 -5 -2 -5 12 0 14 2 19 5 13 2 -7 2 -19 0 -25z
m1593 -313 c-34 -192 -67 -355 -74 -363 -13 -12 -16 7 -5 34 6 16 13 85 16
154 4 97 11 138 28 185 13 33 31 81 41 108 9 26 18 46 19 45 1 -2 -10 -75 -25
-163z m-1839 15 l-8 -125 -1 95 c-2 89 7 187 15 165 1 -6 -1 -66 -6 -135z
m800 -189 c-11 -44 -24 -77 -34 -83 -9 -5 -17 -6 -17 -3 0 11 62 166 65 163 2
-2 -4 -36 -14 -77z m-1061 4 c25 -61 21 -78 -10 -50 -14 13 -20 31 -20 62 0
23 2 43 4 43 2 0 14 -25 26 -55z m-581 -247 c120 -135 129 -148 105 -148 -40
0 -117 54 -137 95 -22 46 -73 72 -113 58 -25 -9 -68 -3 -82 12 -2 2 16 35 39
74 24 39 47 67 50 63 3 -4 65 -73 138 -154z m707 -215 c-11 -11 -17 4 -9 23 7
18 8 18 11 1 2 -10 1 -21 -2 -24z m865 -67 c-1 -52 -8 -112 -16 -133 -13 -36
-14 -32 -14 88 -1 84 3 129 11 137 6 6 14 10 16 7 2 -2 4 -47 3 -99z m1379
-126 c-22 -104 -46 -147 -94 -170 -24 -12 -37 -29 -56 -77 -20 -51 -29 -63
-47 -63 -12 0 -45 -21 -74 -46 -28 -25 -54 -43 -57 -40 -7 8 96 233 124 272
55 75 219 248 222 233 2 -9 -6 -58 -18 -109z m-2663 -790 c34 -19 64 -43 67
-52 2 -10 2 -18 -1 -18 -10 0 -143 96 -143 103 0 10 0 10 77 -33z m1050 16 c8
-6 -176 -228 -261 -316 -56 -58 -112 -119 -124 -137 -48 -68 -13 -153 62 -153
29 0 46 10 101 62 36 33 95 96 131 139 35 42 132 137 215 211 201 178 197 174
211 160 9 -9 -8 -32 -75 -100 -47 -49 -91 -102 -97 -117 -23 -60 18 -125 79
-125 49 0 91 28 226 150 88 79 125 107 152 111 l36 6 -7 -93 -7 -94 32 -44
c42 -59 79 -75 124 -53 32 15 40 30 80 145 2 6 20 12 39 12 34 0 125 42 173
80 14 11 28 18 31 16 2 -3 -29 -62 -70 -132 -65 -114 -73 -133 -73 -180 0 -60
27 -98 76 -109 23 -5 29 -12 29 -32 0 -31 51 -83 82 -83 31 0 70 27 113 78 20
23 55 54 78 70 41 28 44 28 75 13 23 -10 31 -20 27 -30 -33 -86 -66 -241 -75
-355 -13 -157 -52 -424 -81 -544 -44 -188 -104 -404 -150 -545 -10 -31 -19
-63 -19 -71 0 -16 -154 -475 -193 -576 -14 -36 -50 -128 -82 -205 -31 -77 -63
-158 -70 -180 -22 -68 -130 -309 -179 -399 -41 -74 -107 -169 -275 -392 -24
-33 -76 -97 -115 -144 -72 -85 -204 -264 -243 -330 -12 -19 -38 -64 -59 -100
-49 -86 -100 -154 -203 -275 -119 -139 -111 -134 -209 -131 l-83 3 -32 45
c-65 92 -195 264 -296 392 -145 183 -172 225 -258 404 -109 228 -107 223 -295
682 -21 52 -41 113 -44 135 -4 22 -28 128 -54 235 -36 145 -55 253 -75 420
-14 124 -35 288 -45 365 -37 267 -40 375 -30 930 5 292 15 557 21 590 6 33 13
96 17 139 l7 80 83 -78 c95 -88 154 -119 229 -120 44 -1 56 3 82 28 42 40 48
81 20 140 -20 43 -47 71 -168 173 l-33 29 88 -2 c54 -1 138 -12 212 -29 68
-14 135 -24 148 -21 34 9 64 45 64 77 0 26 1 27 30 16 25 -10 36 -8 65 7 19
11 50 21 68 23 41 4 68 32 76 77 l6 36 125 -119 c72 -69 136 -123 152 -126 56
-13 120 52 103 105 -4 12 -20 36 -36 54 -28 33 -28 33 -5 29 13 -3 33 0 45 6
16 9 27 8 50 -4 17 -8 40 -15 51 -15 28 0 80 52 80 80 0 20 3 21 63 14 34 -4
63 -7 64 -8z m1998 -174 c-29 -28 -68 -49 -137 -75 -54 -21 -101 -37 -105 -37
-14 0 73 83 122 116 42 28 59 34 105 34 l55 0 -40 -38z m-3845 -107 c12 -15
12 -24 -21 -410 -6 -71 -13 -292 -16 -490 -2 -198 -5 -396 -6 -440 -1 -44 1
-125 5 -180 7 -102 -6 -104 -17 -3 -3 29 -12 91 -20 138 -8 47 -19 152 -25
234 -7 82 -21 181 -32 220 -11 39 -24 112 -29 161 -4 50 -22 160 -40 245 -36
179 -35 233 5 311 14 30 35 81 44 114 17 56 21 61 71 87 62 32 65 33 81 13z"/>
<path d="M3506 5314 c-34 -35 -36 -91 -3 -121 56 -53 147 -14 147 63 0 24 -8
39 -31 58 -40 34 -79 33 -113 0z"/>
<path d="M1905 5295 c-60 -59 -2 -161 80 -141 97 24 79 166 -20 166 -25 0 -44
-8 -60 -25z"/>
<path d="M2549 4477 c-14 -12 -52 -65 -84 -117 -33 -52 -87 -138 -120 -190
-96 -148 -165 -279 -165 -313 0 -60 59 -123 205 -220 83 -56 114 -59 156 -18
54 55 36 97 -72 170 -43 30 -84 60 -90 67 -12 14 1 40 103 204 132 212 164
259 196 285 26 22 32 34 32 65 0 77 -101 119 -161 67z"/>
<path d="M3035 3314 c-177 -47 -395 -97 -495 -113 -50 -8 -70 -16 -87 -36 -32
-37 -30 -80 6 -116 36 -35 72 -37 180 -10 42 11 141 34 221 51 80 18 182 43
226 56 46 13 108 24 141 24 49 0 63 4 81 23 24 25 29 75 11 109 -11 21 -83 58
-109 57 -8 -1 -87 -21 -175 -45z"/>
<path d="M4939 1715 c-46 -25 -59 -78 -94 -365 -21 -176 -33 -401 -40 -715 -5
-295 -5 -295 52 -315 20 -7 38 -8 56 -1 52 20 54 32 66 381 16 470 37 694 88
933 7 35 -11 71 -44 86 -31 14 -52 13 -84 -4z"/>
<path d="M993 1670 c-21 -19 -38 -81 -92 -340 -59 -283 -104 -486 -111 -504
-9 -25 -6 -35 -55 159 -49 191 -111 403 -136 467 -14 36 -19 65 -15 90 8 47
-9 83 -46 101 -36 17 -70 12 -96 -17 -25 -27 -68 -212 -77 -331 -4 -49 -20
-180 -36 -290 -16 -110 -39 -279 -49 -375 -11 -96 -23 -198 -26 -227 -6 -49
-5 -54 24 -82 17 -17 37 -31 46 -31 28 0 65 19 80 42 14 23 34 149 62 403 13
123 49 354 57 361 3 3 27 -85 83 -301 51 -195 113 -381 134 -400 29 -26 85
-25 113 3 16 17 23 39 28 90 4 37 25 126 47 197 45 148 57 199 117 490 24 116
53 253 64 305 12 52 21 110 21 128 0 69 -88 109 -137 62z"/>
<path d="M1795 1631 c-46 -19 -54 -42 -70 -197 -8 -82 -22 -183 -30 -224 -8
-41 -19 -127 -25 -190 -14 -150 -17 -159 -49 -166 -106 -24 -238 -92 -307
-159 -83 -82 -93 -178 -28 -278 40 -60 76 -77 170 -77 45 0 95 5 112 11 27 9
39 7 75 -10 36 -17 49 -19 74 -11 42 15 51 40 56 160 3 59 12 124 22 150 49
136 92 386 105 615 5 88 12 192 16 231 5 55 3 77 -10 103 -23 44 -66 60 -111
42z m-175 -967 c0 -4 -14 -35 -31 -70 -28 -57 -36 -65 -71 -75 -84 -22 -124 7
-76 58 37 40 178 108 178 87z"/>
<path d="M2445 1508 c-43 -23 -58 -74 -35 -119 13 -24 61 -49 95 -49 36 0 75
42 75 80 0 44 -16 70 -55 86 -41 17 -53 17 -80 2z"/>
<path d="M3465 976 c-68 -31 -197 -130 -268 -205 -56 -58 -60 -60 -80 -46 -52
37 -127 9 -213 -79 -22 -22 -52 -49 -66 -58 -27 -18 -98 -178 -98 -221 0 -32
25 -63 59 -75 48 -17 90 11 126 84 17 33 46 80 65 104 l34 43 8 -28 c26 -100
150 -98 178 3 17 64 200 254 291 303 20 10 20 8 14 -73 -4 -46 -13 -110 -21
-143 -8 -33 -14 -81 -14 -107 0 -40 4 -50 32 -73 38 -32 81 -29 113 8 27 31
59 226 59 367 1 121 -15 166 -69 200 -42 26 -88 25 -150 -4z"/>
<path d="M5315 956 c-43 -43 -31 -113 24 -135 l29 -13 -5 -77 c-7 -100 10
-172 48 -210 47 -47 80 -49 163 -7 126 62 208 153 242 267 21 71 8 116 -44
152 -47 33 -58 35 -264 42 l-168 6 -25 -25z m308 -187 c-17 -28 -73 -79 -88
-79 -13 0 7 85 23 98 9 6 31 12 49 12 l34 0 -18 -31z"/>
<path d="M2365 717 c-27 -27 -41 -59 -75 -168 -23 -74 -48 -149 -56 -167 -26
-59 -11 -111 38 -135 65 -32 117 12 142 120 9 38 32 113 52 168 51 143 52 149
16 185 -41 40 -75 39 -117 -3z"/>
</g>
</svg>
