<?xml version="1.0" standalone="no"?>
<!DOCTYPE svg PUBLIC "-//W3C//DTD SVG 20010904//EN"
 "http://www.w3.org/TR/2001/REC-SVG-20010904/DTD/svg10.dtd">
<svg version="1.0" xmlns="http://www.w3.org/2000/svg"
 width="1125.000000pt" height="1128.000000pt" viewBox="0 0 1125.000000 1128.000000"
 preserveAspectRatio="xMidYMid meet">

<g transform="translate(0.000000,1128.000000) scale(0.100000,-0.100000)"
fill="#000000" stroke="none">
<path d="M5675 10041 c-52 -22 -58 -42 -66 -209 -5 -86 -12 -170 -17 -187 -9
-32 4 -29 -160 -37 -20 -1 -37 5 -43 13 -5 8 -9 50 -10 94 -2 186 -25 245 -96
245 -49 0 -72 -16 -93 -63 -22 -49 -63 -229 -91 -394 -11 -64 -21 -118 -23
-120 -2 -2 -22 52 -46 119 -23 68 -53 142 -66 165 -42 73 -117 79 -166 13 -26
-36 -37 -104 -44 -275 -5 -123 -10 -154 -24 -170 -10 -11 -27 -39 -39 -62 -14
-28 -30 -45 -47 -49 -14 -4 -26 -5 -28 -3 -2 2 -29 41 -60 87 -64 91 -88 112
-127 112 -37 0 -79 -51 -79 -95 0 -19 18 -76 40 -127 23 -51 39 -101 36 -112
-7 -26 8 -60 38 -88 25 -23 101 -167 93 -175 -3 -2 -57 54 -121 124 -80 88
-114 132 -110 143 4 8 9 29 11 46 7 44 -42 97 -113 124 -94 35 -116 49 -219
149 -190 181 -372 329 -462 375 -105 53 -193 -33 -134 -130 39 -63 344 -320
511 -429 36 -24 93 -72 128 -109 l63 -65 -27 -48 c-15 -27 -32 -54 -38 -62 -6
-8 -27 -42 -46 -77 -20 -35 -50 -73 -69 -86 -19 -13 -43 -40 -53 -60 -18 -34
-21 -36 -56 -31 -20 3 -82 21 -136 40 -112 39 -154 38 -180 -2 -33 -51 -15
-107 42 -133 49 -23 209 -121 222 -138 8 -9 3 -31 -23 -86 -31 -68 -39 -77
-93 -108 -57 -32 -99 -62 -178 -127 l-39 -32 -61 48 c-75 60 -97 71 -133 71
-41 0 -83 -46 -83 -90 0 -29 12 -44 92 -121 70 -67 89 -91 81 -101 -33 -42
-18 -110 31 -135 17 -9 76 -36 131 -59 148 -62 195 -84 195 -93 0 -5 11 -25
25 -45 l24 -36 -78 3 c-88 2 -115 -11 -126 -63 -8 -38 18 -88 51 -96 14 -4 23
-9 22 -13 -23 -46 -48 -104 -58 -136 -7 -22 -29 -74 -48 -115 -49 -105 -53
-182 -19 -327 14 -59 30 -144 37 -188 30 -213 41 -274 54 -324 17 -61 23 -112
31 -261 4 -58 17 -165 31 -238 13 -73 24 -143 24 -154 0 -28 72 -98 101 -98
13 0 38 9 55 19 l32 19 7 -66 c4 -37 13 -103 21 -147 8 -44 19 -136 24 -205
12 -147 43 -346 70 -447 11 -40 36 -143 55 -230 25 -109 53 -200 92 -293 30
-74 81 -198 113 -275 100 -243 230 -508 299 -610 27 -40 94 -130 150 -200 56
-69 109 -139 119 -153 9 -15 46 -65 82 -111 36 -46 81 -107 100 -135 41 -60
94 -91 131 -77 17 6 33 4 54 -7 21 -11 72 -17 177 -20 l147 -5 30 31 c35 34
38 57 15 90 -17 24 -16 26 129 204 30 37 85 118 122 180 90 152 156 244 300
423 330 409 420 553 550 887 19 47 41 101 49 120 81 181 281 732 321 883 7 28
30 106 50 175 108 361 184 695 200 880 10 114 35 321 44 360 l8 35 7 -31 c11
-50 48 -77 103 -78 l48 -1 83 -100 c100 -119 213 -287 238 -351 22 -58 13 -98
-56 -239 -77 -158 -181 -315 -254 -383 -97 -90 -265 -207 -279 -193 -15 15
-78 14 -98 -2 -49 -38 -50 -89 -1 -137 44 -45 95 -58 151 -41 55 16 261 166
353 257 81 79 129 146 224 309 149 256 175 395 99 538 -119 223 -370 521 -461
546 -49 14 -101 -5 -130 -48 -13 -20 -24 -33 -24 -30 0 17 63 176 75 188 14
14 291 113 315 112 8 0 31 -3 51 -7 45 -7 138 21 342 105 81 34 180 68 219 76
90 19 128 41 150 86 14 27 16 42 8 68 -22 79 -54 87 -362 97 -120 3 -218 10
-218 14 0 4 7 14 16 21 29 24 91 124 108 173 20 58 9 104 -31 136 -56 44 -106
18 -236 -120 -89 -94 -100 -95 -101 -3 -1 44 -7 66 -25 91 l-23 33 42 92 c56
120 70 167 70 240 0 41 -6 70 -21 96 l-21 37 41 95 c54 124 54 157 0 184 -41
22 -73 18 -108 -10 l-30 -26 -32 40 c-39 50 -78 65 -130 51 -21 -6 -41 -15
-44 -20 -4 -6 -29 -22 -56 -35 -46 -24 -50 -25 -74 -9 -14 9 -36 14 -50 11
-25 -4 -26 -2 -24 42 0 25 11 96 24 156 47 225 81 444 111 720 19 183 19 189
-17 230 -45 51 -89 49 -141 -6 -48 -51 -146 -250 -223 -454 -31 -82 -68 -180
-82 -216 l-25 -66 -23 21 c-41 39 -48 134 -20 317 l18 127 27 -8 c82 -24 149
100 87 158 -27 26 -88 30 -107 7 -7 -8 -18 -15 -25 -15 -7 0 -18 7 -25 15 -14
17 -72 20 -101 5 -37 -20 -59 -94 -75 -260 l-8 -75 -8 70 c-37 303 -36 299
-63 323 -54 46 -128 11 -141 -67 -6 -37 -9 -40 -33 -35 -62 12 -108 -50 -165
-223 -26 -78 -29 -83 -56 -83 l-29 0 39 77 c59 114 100 229 100 278 0 109
-126 141 -173 43 -9 -18 -28 -44 -42 -58 -33 -31 -109 -127 -152 -194 l-33
-50 0 292 c0 299 -4 338 -41 369 -20 17 -61 23 -84 14z m-208 -653 c-3 -7 -5
-2 -5 12 0 14 2 19 5 13 2 -7 2 -19 0 -25z m-246 -299 l-8 -124 -1 90 c-2 84
6 170 14 162 2 -2 0 -59 -5 -128z m1844 4 c-9 -59 -24 -146 -35 -193 -10 -47
-21 -106 -24 -132 -4 -25 -14 -52 -23 -60 -14 -11 -15 -10 -10 7 21 73 27 115
31 216 3 100 8 122 35 184 17 39 31 79 32 90 0 11 3 15 5 8 3 -6 -2 -60 -11
-120z m-1044 -198 c-9 -44 -21 -77 -30 -80 -23 -9 -23 0 0 56 11 30 25 64 30
77 15 40 15 23 0 -53z m-1050 -58 c-16 -16 -41 35 -41 83 l1 45 25 -59 c14
-35 20 -64 15 -69z m-596 -182 c113 -124 124 -140 104 -144 -38 -5 -103 37
-132 86 -31 50 -65 67 -122 58 -27 -3 -47 -1 -59 8 -20 15 -22 10 51 126 8 13
19 19 23 15 4 -5 65 -72 135 -149z m1561 -415 c-14 -44 -14 -43 -15 78 -1 82
3 131 12 145 19 34 22 -163 3 -223z m-850 193 c-11 -11 -19 6 -11 24 8 17 8
17 12 0 3 -10 2 -21 -1 -24z m2245 -191 c-22 -101 -40 -136 -82 -157 -30 -16
-61 -61 -79 -117 -9 -30 -17 -38 -35 -38 -13 0 -46 -20 -77 -45 -29 -25 -54
-42 -56 -37 -4 14 109 254 136 287 13 17 65 77 116 133 104 118 108 117 77
-26z m-2667 -787 c36 -20 66 -44 69 -55 3 -11 3 -20 1 -20 -8 0 -122 81 -134
95 -18 22 -7 19 64 -20z m1008 18 l47 -6 -77 -101 c-42 -55 -122 -148 -179
-206 -133 -136 -153 -164 -153 -212 0 -50 38 -88 86 -88 39 0 112 63 215 187
38 45 111 119 161 164 51 45 128 114 172 153 96 87 104 92 113 71 4 -12 -17
-39 -75 -96 -102 -98 -118 -128 -103 -181 23 -75 90 -87 174 -30 23 17 89 73
145 126 70 65 111 96 127 96 13 0 30 2 37 5 12 5 13 -6 7 -62 -13 -111 -12
-118 30 -171 45 -56 78 -69 120 -47 27 14 40 37 76 141 2 6 25 15 52 19 48 7
140 52 163 80 14 17 30 20 30 5 0 -5 -25 -51 -56 -102 -97 -160 -109 -199 -78
-259 15 -29 70 -63 86 -53 5 3 8 -4 8 -16 0 -56 52 -101 107 -92 13 2 53 35
90 73 37 38 72 69 79 69 6 0 17 6 24 14 9 12 17 13 38 4 15 -7 30 -14 34 -18
4 -3 -6 -50 -23 -105 -17 -59 -34 -143 -40 -205 -32 -353 -92 -671 -181 -965
-40 -134 -66 -221 -93 -315 -95 -324 -346 -981 -480 -1250 -75 -151 -194 -321
-407 -580 -117 -142 -214 -279 -303 -429 -74 -123 -190 -275 -289 -379 l-41
-43 -71 2 c-39 1 -76 -1 -82 -5 -11 -7 -20 1 -55 50 -34 47 -278 368 -352 464
-94 120 -123 166 -200 325 -92 191 -110 230 -170 380 -29 72 -78 191 -109 265
-30 74 -60 159 -66 190 -6 30 -33 150 -60 265 -28 121 -56 271 -65 355 -9 80
-32 271 -50 425 l-35 280 5 495 c4 468 9 581 38 830 l12 104 76 -71 c91 -87
162 -125 230 -125 60 0 95 21 116 69 13 33 13 40 -3 82 -17 46 -75 111 -163
181 l-45 36 90 -2 c84 -2 206 -20 284 -44 19 -5 45 -10 58 -10 31 0 82 52 82
84 0 23 2 24 30 14 25 -8 36 -6 66 11 19 12 49 21 65 21 38 0 79 42 79 81 0
16 3 29 6 29 4 0 58 -51 120 -112 145 -144 175 -157 231 -106 40 37 35 99 -11
137 -20 17 -21 35 -1 27 8 -3 26 -1 40 4 17 7 35 5 60 -6 20 -8 46 -12 60 -8
32 8 65 49 65 81 0 20 4 24 18 18 9 -3 38 -9 64 -12z m2043 -182 c-29 -28 -66
-48 -138 -75 -53 -20 -101 -36 -104 -36 -14 0 84 93 127 121 35 22 57 29 100
29 l55 0 -40 -39z m-3845 -111 c8 -14 8 -54 0 -138 -26 -268 -32 -395 -37
-737 -8 -503 -7 -602 0 -668 5 -35 4 -56 -2 -53 -5 3 -14 45 -21 93 -6 49 -18
126 -26 172 -8 46 -14 113 -14 148 0 79 -15 184 -40 283 -10 41 -23 122 -29
180 -6 57 -20 142 -31 190 -45 194 -44 228 3 330 13 30 33 81 43 113 16 53 22
59 68 82 60 30 72 31 86 5z"/>
<path d="M6165 5958 c-31 -18 -44 -40 -45 -73 0 -63 59 -104 117 -80 61 26 72
97 22 139 -33 28 -62 32 -94 14z"/>
<path d="M4545 5925 c-60 -59 -2 -161 80 -141 97 24 79 166 -20 166 -25 0 -44
-8 -60 -25z"/>
<path d="M5189 5107 c-14 -12 -52 -65 -84 -117 -33 -52 -88 -139 -122 -193
-101 -156 -163 -278 -163 -321 0 -32 8 -46 58 -96 74 -73 205 -160 243 -160
44 0 83 40 82 84 -1 46 -12 59 -93 112 -108 70 -108 68 -60 155 23 41 63 108
90 149 27 41 68 106 91 143 23 38 59 85 80 105 32 29 39 43 39 73 0 76 -102
118 -161 66z"/>
<path d="M5760 3964 c-43 -13 -200 -53 -432 -108 -59 -14 -121 -26 -137 -26
-104 0 -160 -96 -90 -154 37 -32 71 -33 182 -6 45 10 136 31 202 45 66 15 170
40 230 56 63 16 130 28 157 27 61 -3 98 28 98 81 -1 86 -91 123 -210 85z"/>
<path d="M7567 2326 c-30 -28 -42 -68 -57 -186 -5 -47 -17 -134 -25 -195 -8
-60 -19 -245 -25 -410 -5 -165 -12 -350 -16 -411 -7 -128 4 -164 56 -182 36
-13 85 1 99 27 5 9 12 109 16 221 14 452 39 793 71 955 29 147 29 151 0 179
-33 34 -84 35 -119 2z"/>
<path d="M3631 2293 c-17 -14 -28 -47 -47 -133 -14 -63 -34 -153 -44 -200 -11
-47 -24 -112 -29 -145 -23 -140 -80 -375 -91 -375 -4 0 -17 42 -30 93 -39 161
-118 439 -144 513 -15 42 -26 93 -26 123 0 66 -11 87 -53 100 -36 12 -74 4
-94 -20 -20 -24 -61 -220 -72 -344 -11 -108 -28 -241 -60 -450 -6 -38 -18
-137 -27 -220 -8 -82 -19 -168 -23 -190 -11 -58 4 -102 39 -120 35 -18 70 -12
99 19 23 24 38 117 72 426 6 58 20 157 30 220 10 63 19 119 19 125 0 6 3 6 9
0 6 -6 28 -82 51 -170 77 -301 136 -492 159 -519 57 -66 164 -11 147 76 -4 20
6 65 30 136 42 128 69 239 135 557 28 132 59 283 70 335 22 104 18 142 -14
165 -29 20 -80 19 -106 -2z"/>
<path d="M4418 2244 c-34 -18 -43 -51 -58 -209 -7 -66 -20 -169 -31 -230 -10
-60 -21 -144 -24 -185 -11 -142 -7 -135 -78 -154 -93 -26 -231 -103 -282 -157
-56 -60 -72 -113 -55 -186 13 -58 42 -106 83 -137 34 -25 146 -34 223 -17 46
11 57 10 76 -3 34 -24 85 -20 113 9 22 22 25 33 25 107 1 92 3 104 53 298 42
161 77 395 77 511 0 46 5 125 10 174 11 103 1 156 -33 180 -27 19 -64 19 -99
-1z m-168 -979 c-20 -53 -51 -105 -68 -114 -9 -5 -38 -12 -64 -16 -41 -6 -47
-5 -58 15 -10 19 -9 26 11 46 29 29 147 93 171 94 14 0 16 -4 8 -25z"/>
<path d="M5065 2115 c-45 -44 -29 -116 30 -141 47 -19 59 -18 94 12 49 41 40
108 -19 139 -42 22 -77 19 -105 -10z"/>
<path d="M6118 1605 c-51 -19 -209 -138 -282 -213 -55 -57 -61 -60 -80 -46
-28 19 -96 18 -126 -3 -14 -9 -52 -41 -85 -71 -33 -30 -69 -62 -80 -72 -28
-25 -89 -193 -81 -225 14 -55 75 -82 126 -55 10 5 37 44 60 87 22 42 54 91 70
109 l28 32 6 -33 c8 -40 48 -75 86 -75 37 0 77 33 85 71 7 33 56 101 119 167
41 43 178 152 192 152 10 0 -5 -154 -22 -225 -21 -91 -18 -139 10 -171 18 -21
32 -28 61 -28 60 0 78 29 100 170 26 161 27 316 1 368 -35 70 -104 92 -188 61z"/>
<path d="M7955 1574 c-41 -45 -25 -113 31 -134 23 -9 24 -13 24 -104 0 -123 7
-151 45 -192 27 -28 39 -34 75 -34 53 0 144 47 215 112 104 95 153 252 96 312
-48 51 -80 59 -278 62 l-184 4 -24 -26z m325 -164 c0 -5 -21 -31 -47 -57 l-48
-48 -3 37 c-5 57 11 78 58 78 22 0 40 -4 40 -10z"/>
<path d="M5024 1360 c-39 -16 -51 -42 -139 -322 -17 -54 -25 -97 -21 -113 10
-39 45 -65 87 -65 47 0 73 30 95 109 8 31 33 108 55 171 57 162 57 164 21 200
-31 30 -59 36 -98 20z"/>
</g>
</svg>
